<svg width="130" height="130" viewBox="0 0 130 130" fill="none" xmlns="http://www.w3.org/2000/svg" data-ember-extension="1">
<g clip-path="url(#clip0_6269_90746)">
<path d="M65 130C100.899 130 130 100.898 130 65C130 29.1015 100.899 0 65 0C29.1015 0 0 29.1015 0 65C0 100.898 29.1015 130 65 130Z" fill="url(#paint0_radial_6269_90746)"/>
<path d="M93.0009 98.3807C79.76 96.1739 45.7874 83.2719 38.8015 49.0981C35.3071 32.5394 38.6065 8.31991 38.6065 8.31991C12.7188 20.2176 -2.5913 48.6943 3.34616 77.9356C10.332 112.109 43.9139 134.387 78.2874 127.443C96.0053 123.973 110.202 113.45 119.45 99.3924C114.84 101.492 106.242 100.588 93.0009 98.3807Z" fill="url(#paint1_linear_6269_90746)"/>
<path fill-rule="evenodd" clip-rule="evenodd" d="M64.6571 7.93506L16.2614 34.6271V34.8355L22.1846 38.5125V38.4765L64.6571 14.417L107.13 38.4765V60.1776C107.13 67.693 106.754 72.6658 104.561 78.5075L99.1349 74.9325C98.385 74.4384 97.4144 75.1066 97.6083 75.9835L101.133 91.9241C101.281 92.5927 102.042 92.9183 102.628 92.5636L116.055 84.4337C116.804 83.9803 116.65 82.8518 115.807 82.6154L110.061 81.004C112.574 74.3749 113.053 68.5525 113.053 60.1776V34.6271L64.6571 7.93506Z" fill="url(#paint2_linear_6269_90746)"/>
<path fill-rule="evenodd" clip-rule="evenodd" d="M22.2141 34.2989C21.8968 33.6922 21.0773 33.5766 20.6046 34.0719L9.33248 45.8816C8.71243 46.5312 9.19651 47.6055 10.0939 47.5713L16.561 47.3251V60.2355C16.561 89.4315 36.6467 116.855 63.9786 123.553L64.6771 123.724L65.3756 123.553C82.7073 119.305 97.6398 106.057 105.87 89.9748L100.851 86.8523C93.4932 101.491 80.0479 113.624 64.6771 117.635C40.5602 111.341 22.45 86.6977 22.45 60.2355L22.4474 47.9989L28.3346 49.6351C29.178 49.8695 29.8941 48.9839 29.4885 48.2082L22.2141 34.2989Z" fill="url(#paint3_linear_6269_90746)"/>
<path d="M53.3058 67.9724V72.7998H37.3176V67.9724H53.3058ZM39.3394 42.7627V72.7998H33.1504V42.7627H39.3394ZM51.2222 54.9962V59.6998H37.3176V54.9962H51.2222ZM53.2852 42.7627V47.6107H37.3176V42.7627H53.2852Z" fill="white"/>
<path d="M66.5337 42.7627V72.7998H60.3653V42.7627H66.5337ZM75.7759 42.7627V47.6107H51.2676V42.7627H75.7759Z" fill="white"/>
<path d="M90.3859 64.9398C90.3859 64.4034 90.3034 63.9221 90.1384 63.4957C89.9871 63.0556 89.6983 62.6568 89.2719 62.2992C88.8456 61.9279 88.2473 61.5634 87.4771 61.2058C86.7069 60.8482 85.7098 60.4769 84.4858 60.0918C83.1242 59.6517 81.8314 59.1566 80.6074 58.6064C79.3971 58.0563 78.3243 57.4168 77.3891 56.6879C76.4676 55.9452 75.7387 55.0856 75.2023 54.1091C74.6797 53.1326 74.4184 51.998 74.4184 50.7052C74.4184 49.4537 74.6935 48.319 75.2436 47.3013C75.7937 46.2698 76.5639 45.3896 77.5541 44.6606C78.5444 43.918 79.7134 43.3472 81.0612 42.9484C82.4228 42.5495 83.915 42.3501 85.5379 42.3501C87.7522 42.3501 89.6845 42.7489 91.3349 43.5466C92.9853 44.3443 94.2644 45.4377 95.1721 46.8268C96.0935 48.2159 96.5543 49.8044 96.5543 51.5923H90.4066C90.4066 50.7121 90.2209 49.9419 89.8496 49.2817C89.492 48.6078 88.9418 48.0783 88.1992 47.6932C87.4702 47.3081 86.5488 47.1156 85.4348 47.1156C84.362 47.1156 83.468 47.2806 82.7529 47.6107C82.0377 47.927 81.5013 48.3603 81.1437 48.9104C80.7862 49.4468 80.6074 50.0519 80.6074 50.7258C80.6074 51.2347 80.7312 51.6954 80.9787 52.108C81.24 52.5206 81.6251 52.9057 82.134 53.2633C82.6429 53.6209 83.2686 53.9578 84.0113 54.2742C84.754 54.5905 85.6136 54.8999 86.59 55.2025C88.2267 55.6976 89.6639 56.2546 90.9017 56.8735C92.1532 57.4924 93.1985 58.187 94.0374 58.9572C94.8764 59.7273 95.509 60.6007 95.9354 61.5771C96.3617 62.5536 96.5749 63.6608 96.5749 64.8986C96.5749 66.2051 96.3205 67.3741 95.8116 68.4056C95.3027 69.4371 94.5669 70.3105 93.6042 71.0256C92.6415 71.7408 91.4931 72.2841 90.159 72.6554C88.8249 73.0267 87.3327 73.2124 85.6823 73.2124C84.197 73.2124 82.7323 73.0199 81.2882 72.6348C79.8441 72.2359 78.5306 71.6377 77.3479 70.84C76.1788 70.0423 75.2436 69.0245 74.5422 67.7867C73.8408 66.549 73.4901 65.0842 73.4901 63.3926H79.6997C79.6997 64.3278 79.8441 65.1186 80.1329 65.765C80.4217 66.4114 80.8274 66.934 81.35 67.3329C81.8864 67.7317 82.5191 68.0205 83.248 68.1993C83.9907 68.3781 84.8021 68.4675 85.6823 68.4675C86.7551 68.4675 87.6353 68.3162 88.3229 68.0137C89.0244 67.7111 89.5401 67.2916 89.8702 66.7552C90.214 66.2189 90.3859 65.6137 90.3859 64.9398Z" fill="white"/>
<path d="M54.9859 95.8342L59.8609 78.1217H65.975L58.5609 100.1H54.8641L54.9859 95.8342ZM51.6344 78.1217L56.5297 95.8545L56.6312 100.1H52.9141L45.5 78.1217H51.6344Z" fill="white"/>
<path d="M72.5886 86.5635H75.0325C75.8153 86.5635 76.4607 86.4312 76.9685 86.1667C77.4763 85.8917 77.8519 85.5108 78.0952 85.0242C78.3491 84.5269 78.4761 83.9504 78.4761 83.2944C78.4761 82.702 78.3597 82.1783 78.127 81.7234C77.9048 81.2579 77.561 80.8982 77.0955 80.6443C76.63 80.3798 76.0428 80.2476 75.334 80.2476C74.7733 80.2476 74.2549 80.3586 73.7788 80.5808C73.3027 80.803 72.9219 81.1151 72.6362 81.5171C72.3506 81.9191 72.2078 82.4058 72.2078 82.9771H67.6216C67.6216 81.7075 67.9601 80.602 68.6372 79.6604C69.3249 78.7188 70.2453 77.9836 71.3984 77.4546C72.5516 76.9256 73.8211 76.6611 75.207 76.6611C76.7728 76.6611 78.1428 76.915 79.3171 77.4229C80.4915 77.9201 81.4066 78.6554 82.0625 79.6287C82.7184 80.602 83.0464 81.808 83.0464 83.2468C83.0464 83.9768 82.8771 84.6856 82.5386 85.3733C82.2 86.0504 81.7134 86.664 81.0786 87.2141C80.4544 87.7537 79.6927 88.1874 78.7935 88.5154C77.8942 88.8328 76.8839 88.9915 75.7624 88.9915H72.5886V86.5635ZM72.5886 90.0388V87.6743H75.7624C77.0214 87.6743 78.127 87.8171 79.0791 88.1028C80.0312 88.3884 80.83 88.801 81.4753 89.3406C82.1207 89.8695 82.6073 90.499 82.9353 91.229C83.2633 91.9484 83.4272 92.7472 83.4272 93.6252C83.4272 94.7043 83.2209 95.6671 82.8083 96.5134C82.3958 97.3492 81.8139 98.058 81.0627 98.6399C80.3222 99.2218 79.4547 99.6661 78.4602 99.9729C77.4657 100.269 76.3813 100.417 75.207 100.417C74.2337 100.417 73.2763 100.285 72.3347 100.021C71.4037 99.7454 70.5574 99.3381 69.7957 98.7986C69.0445 98.2485 68.4415 97.5608 67.9866 96.7356C67.5422 95.8998 67.3201 94.9106 67.3201 93.7681H71.9062C71.9062 94.3605 72.0544 94.8895 72.3506 95.355C72.6468 95.8205 73.0541 96.1855 73.5725 96.45C74.1015 96.7144 74.6886 96.8467 75.334 96.8467C76.064 96.8467 76.6882 96.7144 77.2065 96.45C77.7355 96.1749 78.1375 95.794 78.4126 95.3074C78.6982 94.8101 78.8411 94.2336 78.8411 93.5776C78.8411 92.7313 78.6877 92.0542 78.3809 91.5464C78.0741 91.028 77.635 90.6471 77.0637 90.4038C76.4924 90.1605 75.8153 90.0388 75.0325 90.0388H72.5886Z" fill="white"/>
</g>
<defs>
<radialGradient id="paint0_radial_6269_90746" cx="0" cy="0" r="1" gradientUnits="userSpaceOnUse" gradientTransform="translate(130 -18.2) rotate(131.262) scale(162.131)">
<stop stop-color="#FBFAF5"/>
<stop offset="0.289222" stop-color="#F3F3F3"/>
<stop offset="0.527498" stop-color="#98A2B0"/>
<stop offset="0.738019" stop-color="#232323"/>
</radialGradient>
<linearGradient id="paint1_linear_6269_90746" x1="21.4353" y1="108.367" x2="74.399" y2="63.2846" gradientUnits="userSpaceOnUse">
<stop stop-color="#FD0420"/>
<stop offset="1" stop-color="#FB0520" stop-opacity="0"/>
</linearGradient>
<linearGradient id="paint2_linear_6269_90746" x1="94.6849" y1="1.2601" x2="30.3749" y2="31.1745" gradientUnits="userSpaceOnUse">
<stop offset="0.445694" stop-color="white"/>
<stop offset="1" stop-color="white" stop-opacity="0"/>
</linearGradient>
<linearGradient id="paint3_linear_6269_90746" x1="32.1721" y1="141.673" x2="102.164" y2="101.099" gradientUnits="userSpaceOnUse">
<stop offset="0.559619" stop-color="white"/>
<stop offset="0.918509" stop-color="white" stop-opacity="0"/>
</linearGradient>
<clipPath id="clip0_6269_90746">
<rect width="130" height="130" rx="65" fill="white"/>
</clipPath>
</defs>
</svg>