<svg id="Layer_1" data-name="Layer 1" xmlns="http://www.w3.org/2000/svg" viewBox="0 0 500 500"><defs><style>.cls-1{fill:none;}.cls-2{fill:#0c8346;}</style></defs><title>logo-01</title><rect class="cls-1" x="-50" y="-50" width="600" height="600"/><rect class="cls-1" x="-50" y="-50" width="600" height="600"/><rect class="cls-1" x="-50" y="-50" width="600" height="600"/><path class="cls-2" d="M54.8,381.24A186.41,186.41,0,0,1,2,224.57a100.81,100.81,0,0,1,26.3-45.79l71.46-71.46c1.91-1.91,3.9-3.73,6-5.48s4.18-3.4,6.37-5,4.43-3.07,6.74-4.47,4.66-2.7,7.07-3.91,4.87-2.33,7.37-3.34,5-1.93,7.6-2.74,5.17-1.52,7.8-2.13,5.28-1.11,8-1.5,5.35-.68,8-.87,5.38-.25,8.08-.21,5.39.17,8.07.42,5.36.6,8,1.06,5.29,1,7.9,1.69,5.19,1.45,7.75,2.33S209.5,85,212,86.11s4.9,2.25,7.28,3.52c12.5,5.61,41,24.41,64.83,48.06-15.08-14-85-24.36-113.56.68L157.8,151.09C103,205.87,103,295.13,157.8,350c0,0,86.63,102.09,170.89,112.56,14.17,1.77,28.57-2.15,42.29-6.46-2.08,1.75-4.18,3.45-6.33,5.1s-4.33,3.27-6.55,4.83-4.47,3.08-6.75,4.54-4.6,2.88-6.94,4.24-4.72,2.68-7.12,3.94-4.83,2.46-7.28,3.62-4.93,2.25-7.44,3.29-5,2-7.57,3-5.11,1.81-7.69,2.64-5.19,1.59-7.81,2.3-5.25,1.36-7.89,2-5.3,1.13-8,1.61-5.34.9-8,1.26-5.38.67-8.08.91-5.41.43-8.12.56-5.42.19-8.13.2-5.42,0-8.13-.16-5.42-.28-8.12-.51-5.4-.51-8.09-.86-5.37-.75-8-1.21-5.33-1-8-1.57-5.29-1.21-7.91-1.91-5.23-1.44-7.81-2.25-5.16-1.68-7.71-2.59-5.08-1.9-7.59-2.93-5-2.12-7.45-3.26-4.9-2.33-7.31-3.57-4.79-2.55-7.14-3.89-4.67-2.75-7-4.21-4.55-3-6.77-4.5-4.42-3.14-6.57-4.79-4.28-3.33-6.36-5.07q-6.39-5.34-12.36-11.32ZM171.31,37.49C255.57,48,342.2,150.06,342.2,150.06c54.78,54.79,54.78,144.05,0,198.87l-12.72,12.71c-31.22,26.54-98.5,14.66-113.55.72,23.83,23.65,52.28,42.45,64.82,48.05q3.57,1.9,7.29,3.52c2.47,1.08,5,2.05,7.53,2.93s5.13,1.65,7.75,2.31,5.24,1.24,7.9,1.7,5.33.82,8,1.07,5.38.38,8.08.41,5.39,0,8.08-.22,5.37-.47,8-.87,5.31-.89,7.94-1.5,5.23-1.31,7.8-2.13,5.11-1.73,7.61-2.74,5-2.13,7.36-3.35,4.77-2.51,7.07-3.91,4.55-2.89,6.74-4.47,4.31-3.24,6.37-5,4-3.57,5.94-5.47l71.47-71.46A100.88,100.88,0,0,0,498,275.47a186.45,186.45,0,0,0-.64-54.25A185.36,185.36,0,0,0,445.2,118.81L381,54.6q-5.94-6-12.36-11.34-3.12-2.61-6.36-5.07c-2.16-1.65-4.34-3.24-6.57-4.8s-4.49-3-6.77-4.5-4.62-2.85-7-4.19-4.74-2.66-7.14-3.9-4.85-2.44-7.31-3.57S322.6,15,320.09,14s-5-2-7.59-2.93-5.12-1.78-7.71-2.59S299.6,6.89,297,6.2s-5.25-1.34-7.9-1.92-5.31-1.09-8-1.56-5.36-.87-8-1.21S267.66.87,265,.64s-5.41-.4-8.12-.51S251.42,0,248.71,0s-5.42.08-8.13.2-5.42.31-8.12.56-5.39.54-8.08.9-5.37.78-8,1.26-5.33,1-8,1.61-5.28,1.25-7.9,2-5.22,1.48-7.8,2.3-5.15,1.7-7.69,2.63-5.07,1.93-7.58,3-5,2.14-7.43,3.29-4.88,2.36-7.28,3.62-4.78,2.57-7.12,3.94-4.66,2.77-6.95,4.24-4.53,3-6.75,4.53-4.39,3.17-6.54,4.83-4.26,3.36-6.33,5.11C142.74,39.65,157.13,35.73,171.31,37.49Z"/></svg>