<?xml version="1.0" encoding="UTF-8" standalone="no"?>
<!-- Generator: Adobe Illustrator 26.4.0, SVG Export Plug-In . SVG Version: 6.00 Build 0)  -->

<svg
   xmlns:dc="http://purl.org/dc/elements/1.1/"
   xmlns:cc="http://creativecommons.org/ns#"
   xmlns:rdf="http://www.w3.org/1999/02/22-rdf-syntax-ns#"
   xmlns:svg="http://www.w3.org/2000/svg"
   xmlns="http://www.w3.org/2000/svg"
   xmlns:sodipodi="http://sodipodi.sourceforge.net/DTD/sodipodi-0.dtd"
   xmlns:inkscape="http://www.inkscape.org/namespaces/inkscape"
   version="1.1"
   id="Ebene_2"
   x="0px"
   y="0px"
   viewBox="0 0 460.5 460.5"
   xml:space="preserve"
   sodipodi:docname="autobot_logo (1).svg"
   width="460.5"
   height="460.5"
   inkscape:version="0.92.5 (2060ec1f9f, 2020-04-08)"><metadata
   id="metadata38"><rdf:RDF><cc:Work
       rdf:about=""><dc:format>image/svg+xml</dc:format><dc:type
         rdf:resource="http://purl.org/dc/dcmitype/StillImage" /><dc:title></dc:title></cc:Work></rdf:RDF></metadata><defs
   id="defs36" /><sodipodi:namedview
   pagecolor="#ffffff"
   bordercolor="#666666"
   borderopacity="1"
   objecttolerance="10"
   gridtolerance="10"
   guidetolerance="10"
   inkscape:pageopacity="0"
   inkscape:pageshadow="2"
   inkscape:window-width="1402"
   inkscape:window-height="748"
   id="namedview34"
   showgrid="false"
   fit-margin-top="0"
   fit-margin-left="0"
   fit-margin-right="0"
   fit-margin-bottom="0"
   inkscape:zoom="0.472"
   inkscape:cx="230.12"
   inkscape:cy="230.25"
   inkscape:window-x="0"
   inkscape:window-y="32"
   inkscape:window-maximized="0"
   inkscape:current-layer="Ebene_2" />
<style
   type="text/css"
   id="style2">
	.st0{fill:#E52424;stroke:#CE1417;stroke-miterlimit:10;}
	.st1{fill:#FFFFFF;}
	.st2{fill:#E52421;}
	.st3{fill:#E52424;}
</style>
<g
   id="Ebene_3"
   transform="translate(-19.880005,-19.75)">
	<circle
   class="st0"
   cx="250.13"
   cy="250"
   r="229.75"
   id="circle4"
   style="fill:#e52424;stroke:#ce1417;stroke-miterlimit:10" />
</g>
<polygon
   class="st1"
   points="151.67,162.3 210.56,186.23 219.77,241.44 154.74,241.44 119.15,216.29 105.04,124.88 140.63,124.88 "
   id="polygon7"
   style="fill:#ffffff"
   transform="translate(-19.880005,-19.75)" />
<path
   class="st1"
   d="m 131.79,113.72 7.98,22.09 90.35,35.57 91.24,-34.97 7.36,-22.7 c 0,0.01 -95.7,-46.62 -196.93,0.01 z"
   id="path9"
   inkscape:connector-curvature="0"
   style="fill:#ffffff" />
<polygon
   class="st1"
   points="382.96,216.9 348.6,241.44 279.89,241.44 288.48,187.45 348.6,159.85 363.33,124.88 397.07,124.88 "
   id="polygon11"
   style="fill:#ffffff"
   transform="translate(-19.880005,-19.75)" />
<polygon
   class="st1"
   points="276.82,191.13 268.23,241.44 267.62,328.56 235.1,328.56 233.26,241.44 225.29,191.13 250.13,200.95 "
   id="polygon13"
   style="fill:#ffffff"
   transform="translate(-19.880005,-19.75)" />
<polygon
   class="st1"
   points="151.67,271.5 181.12,288.68 181.12,383.16 128.36,361.07 121.61,230.4 145.53,245.74 "
   id="polygon15"
   style="fill:#ffffff"
   transform="translate(-19.880005,-19.75)" />
<polygon
   class="st1"
   points="219.77,340.83 279.89,340.83 279.89,271.5 303.2,288.68 303.2,387.45 285.41,392.36 279.89,353.1 219.77,353.71 214.86,392.36 195.84,387.45 195.84,288.07 219.77,271.5 "
   id="polygon17"
   style="fill:#ffffff"
   transform="translate(-19.880005,-19.75)" />
<polygon
   class="st1"
   points="276.82,405.25 222.83,405.25 228.97,364.14 272.53,364.14 "
   id="polygon19"
   style="fill:#ffffff"
   transform="translate(-19.880005,-19.75)" />
<polygon
   class="st1"
   points="348.6,271.5 355.35,244.51 377.44,230.4 370.69,360.46 315.47,383.16 315.47,288.68 "
   id="polygon21"
   style="fill:#ffffff"
   transform="translate(-19.880005,-19.75)" />
<path
   class="st2"
   d="m 199.89,124.76 30.06,17.79 33.13,-17.79 c 0,0 -26.38,-14.11 -63.19,0 z"
   id="path23"
   inkscape:connector-curvature="0"
   style="fill:#e52421" />
<path
   class="st3"
   d="m 113.38,171.71 c 0,2.39 0,4.78 0,7.16 l 62.58,25.77 c 0,-2.66 0,-5.32 0,-7.98 -20.86,-8.31 -41.72,-16.63 -62.58,-24.95 z"
   id="path25"
   inkscape:connector-curvature="0"
   style="fill:#e52424" />
<path
   class="st3"
   d="m 113.38,155.43 v -7.98 c 20.86,9 41.72,18 62.58,26.99 0,2.86 0,5.73 0,8.59 -20.86,-9.19 -41.72,-18.39 -62.58,-27.6 z"
   id="path27"
   inkscape:connector-curvature="0"
   style="fill:#e52424" />
<path
   class="st3"
   d="m 283.32,176.68 v 7.36 l 64.42,-25.77 c 0,-2.35 0,-4.7 0,-7.05 -21.47,8.49 -42.95,16.97 -64.42,25.46 z"
   id="path29"
   inkscape:connector-curvature="0"
   style="fill:#e52424" />
<polygon
   class="st3"
   points="367.62,200.79 367.62,193.07 303.2,217.97 303.2,224.72 "
   id="polygon31"
   style="fill:#e52424"
   transform="translate(-19.880005,-19.75)" />
</svg>